<?xml version="1.0" encoding="utf-8"?>
<svg version="1.1" xmlns="http://www.w3.org/2000/svg" xmlns:xlink="http://www.w3.org/1999/xlink" x="0px" y="0px"
	viewBox="0 0 500 500" style="enable-background:new 0 0 500 500;" xml:space="preserve">
	<g id="palette">
		<circle cx="279.55" cy="151" r="27.55" />
		<circle cx="334.64" cy="224.46" r="27.55" />
		<path d="M265.41,334.64c0-3.12,1.49-5.82,3.8-7.47v-1.71v-36.4c-22.82,2.66-40.53,22.05-40.53,45.59c0,11.02,4.04,21.85,11.57,30.3
		c1.6,1.76,2.51,4.05,2.57,6.43c0,5.14-4.04,9.18-9.18,9.18c-80.98,0-146.91-65.93-146.91-146.91S152.65,86.73,233.64,86.73
		s146.91,57.66,146.91,128.55c0,21.12-8.92,40.14-23.18,53.54l28.48,23.45c19.43-19.87,31.42-47.05,31.42-76.99
		C417.28,124.19,334.82,50,233.64,50S50,132.45,50,233.64s82.45,183.64,183.64,183.64c25.36,0,45.91-20.55,45.91-45.91
		c0-11.2-4.22-22.04-11.75-30.67C266.33,338.86,265.41,336.84,265.41,334.64z" />
	</g>
	<g id="tag">
		<rect x="191" y="146" transform="matrix(0.9848 0.1736 -0.1736 0.9848 43.1665 -31.394)" width="20" height="170" />
		<polygon
			points="269.28,231.21 226.86,273.64 241,287.78 283.43,245.36 297.57,231.21 283.43,217.07 241,174.64 226.86,188.79 	" />
		<polygon
			points="132.72,231 175.14,188.57 161,174.43 118.57,216.86 104.43,231 118.57,245.14 161,287.57 175.14,273.43 	" />
	</g>
	<g id="cursor">
		<path d="M313.96,291.14l88.11,72.54h-33.85c-12.64,0-24.64,5.48-32.92,15.04l-21.34,24.66V291.14 M301.32,252
		C301.32,252,301.32,252,301.32,252c-6.83,0-12.36,5.54-12.36,12.36v0.01v172.95c0,7.52,6.13,12.39,12.47,12.39
		c3.3,0,6.66-1.33,9.23-4.29l43.54-50.33c3.52-4.07,8.63-6.4,14.01-6.4h69.1c11.59,0,16.8-14.53,7.86-21.9L309.18,254.82
		C306.96,253,304.19,252,301.32,252L301.32,252z" />
	</g>
</svg>